# xmcd
#
# Track frame offsets: 
#        182
#        16400
#        29790
#        45945
#        60137
#        73322
#        94070
#        116542
#        137280
#        154795
#        166207
#        180515
#        192387
#        210435
#
# Disc length: 3072 seconds
#
# Revision: 7
# Processed by: cddbd v1.5.2PL0 Copyright (c) Steve Scherf et al.
# Submitted via: ExactAudioCopyFreeDBPlugin 1.0
#
DISCID=b20bfe0e
DTITLE=John Mayall - Stormy Monday
DYEAR=1998
DGENRE=Blues
TTITLE0=Oh Pretty Woman
TTITLE1=Sitting In The Rain
TTITLE2=Long Gone Midnight
TTITLE3=No Reply
TTITLE4=Hartley Quits
TTITLE5=Jenny
TTITLE6=Room To Move
TTITLE7=They Call It Stormy Monday
TTITLE8=Don't Pick A Flower
TTITLE9=Thinking Of My Woman
TTITLE10=Don't Waste My Time
TTITLE11=Plan Your Revolution
TTITLE12=Took The Car
TTITLE13=Time's Moving On
EXTD=Karussell Spectrum 550 717-2
EXTT0=
EXTT1=
EXTT2=
EXTT3=
EXTT4=
EXTT5=
EXTT6=
EXTT7=
EXTT8=
EXTT9=
EXTT10=
EXTT11=
EXTT12=
EXTT13=
PLAYORDER=
